# xmcd
#
# Track frame offsets: 
#        150
#        24974
#        51198
#        69957
#        93881
#        124127
#        145069
#        173507
#        190623
#        221448
#
# Disc length: 3281 seconds
#
# Revision: 0
# Processed by: cddbd v1.5.2PL0 Copyright (c) Steve Scherf et al.
# Submitted via: ExactAudioCopy v0.99pb4
#
DISCID=7a0ccf0a
DTITLE=Theatre of Tragedy - Last Curtain Call
DYEAR=2011
DGENRE=Gothic
TTITLE0=Hide and Seek
TTITLE1=Bring Forth ye Shadow
TTITLE2=Ashes and Dreams
TTITLE3=A Rose for the Dead
TTITLE4=And when he Falleth
TTITLE5=Venus
TTITLE6=Hollow
TTITLE7=Storm
TTITLE8=Fade
TTITLE9=Forever is the World
EXTD=
EXTT0=
EXTT1=
EXTT2=
EXTT3=
EXTT4=
EXTT5=
EXTT6=
EXTT7=
EXTT8=
EXTT9=
PLAYORDER=
